name Walk4.mot
datacolumns 19
datarows 25
range 1.37100000 1.39500000
endheader

                time	   L_ground_force_vx	   L_ground_force_vy	   L_ground_force_vz	   L_ground_force_px	   L_ground_force_py	   L_ground_force_pz	   R_ground_force_vx	   R_ground_force_vy	   R_ground_force_vz	   R_ground_force_px	   R_ground_force_py	   R_ground_force_pz	   L_ground_torque_x	   L_ground_torque_y	   L_ground_torque_z	   R_ground_torque_x	   R_ground_torque_y	   R_ground_torque_z	
          1.37100000	          0.00000000	          0.00000000	          0.00000000	          0.00000000	          0.00000000	          0.00000000	          0.54317941	        631.43449313	         32.05706248	         -0.36922810	          0.00000000	         -0.08201008	          0.00000000	          0.00000000	          0.00000000	          0.00000000	         -0.86480314	          0.00000000	
          1.37200000	          0.00000000	          0.00000000	          0.00000000	          0.00000000	          0.00000000	          0.00000000	          0.82929798	        631.91936412	         32.22937076	         -0.36880052	          0.00000000	         -0.08201362	          0.00000000	          0.00000000	          0.00000000	          0.00000000	         -0.88628625	          0.00000000	
          1.37300000	          0.00000000	          0.00000000	          0.00000000	          0.00000000	          0.00000000	          0.00000000	          1.13325943	        632.40915207	         32.38571264	         -0.36837101	          0.00000000	         -0.08202136	          0.00000000	          0.00000000	          0.00000000	          0.00000000	         -0.91617629	          0.00000000	
          1.37400000	          0.00000000	          0.00000000	          0.00000000	          0.00000000	          0.00000000	          0.00000000	          1.45387043	        632.86791617	         32.52903611	         -0.36792741	          0.00000000	         -0.08202644	          0.00000000	          0.00000000	          0.00000000	          0.00000000	         -0.94887088	          0.00000000	
          1.37500000	          0.00000000	          0.00000000	          0.00000000	          0.00000000	          0.00000000	          0.00000000	          1.79446955	        633.31601325	         32.67033228	         -0.36746175	          0.00000000	         -0.08203420	          0.00000000	          0.00000000	          0.00000000	          0.00000000	         -0.97229994	          0.00000000	
          1.37600000	          0.00000000	          0.00000000	          0.00000000	          0.00000000	          0.00000000	          0.00000000	          2.15278386	        633.81188403	         32.81584467	         -0.36697660	          0.00000000	         -0.08206556	          0.00000000	          0.00000000	          0.00000000	          0.00000000	         -0.97717449	          0.00000000	
          1.37700000	          0.00000000	          0.00000000	          0.00000000	          0.00000000	          0.00000000	          0.00000000	          2.52407595	        634.40185879	         32.96043683	         -0.36649149	          0.00000000	         -0.08213188	          0.00000000	          0.00000000	          0.00000000	          0.00000000	         -0.96849233	          0.00000000	
          1.37800000	          0.00000000	          0.00000000	          0.00000000	          0.00000000	          0.00000000	          0.00000000	          2.90682428	        635.09049179	         33.08749906	         -0.36603231	          0.00000000	         -0.08220917	          0.00000000	          0.00000000	          0.00000000	          0.00000000	         -0.96026571	          0.00000000	
          1.37900000	          0.00000000	          0.00000000	          0.00000000	          0.00000000	          0.00000000	          0.00000000	          3.29903067	        635.84417260	         33.18393332	         -0.36560572	          0.00000000	         -0.08224397	          0.00000000	          0.00000000	          0.00000000	          0.00000000	         -0.96114680	          0.00000000	
          1.38000000	          0.00000000	          0.00000000	          0.00000000	          0.00000000	          0.00000000	          0.00000000	          3.69844301	        636.62253491	         33.25747143	         -0.36520154	          0.00000000	         -0.08219927	          0.00000000	          0.00000000	          0.00000000	          0.00000000	         -0.97118419	          0.00000000	
          1.38100000	          0.00000000	          0.00000000	          0.00000000	          0.00000000	          0.00000000	          0.00000000	          4.10838590	        637.40160266	         33.32705887	         -0.36482156	          0.00000000	         -0.08210071	          0.00000000	          0.00000000	          0.00000000	          0.00000000	         -0.98786881	          0.00000000	
          1.38200000	          0.00000000	          0.00000000	          0.00000000	          0.00000000	          0.00000000	          0.00000000	          4.53321501	        638.17632147	         33.40238394	         -0.36447664	          0.00000000	         -0.08201311	          0.00000000	          0.00000000	          0.00000000	          0.00000000	         -1.00807303	          0.00000000	
          1.38300000	          0.00000000	          0.00000000	          0.00000000	          0.00000000	          0.00000000	          0.00000000	          4.96819652	        638.97959718	         33.48286071	         -0.36415352	          0.00000000	         -0.08197795	          0.00000000	          0.00000000	          0.00000000	          0.00000000	         -1.02754722	          0.00000000	
          1.38400000	          0.00000000	          0.00000000	          0.00000000	          0.00000000	          0.00000000	          0.00000000	          5.40569681	        639.88829710	         33.56368237	         -0.36381789	          0.00000000	         -0.08200197	          0.00000000	          0.00000000	          0.00000000	          0.00000000	         -1.04454795	          0.00000000	
          1.38500000	          0.00000000	          0.00000000	          0.00000000	          0.00000000	          0.00000000	          0.00000000	          5.84754422	        640.97066510	         33.63595592	         -0.36345172	          0.00000000	         -0.08207284	          0.00000000	          0.00000000	          0.00000000	          0.00000000	         -1.06066039	          0.00000000	
          1.38600000	          0.00000000	          0.00000000	          0.00000000	          0.00000000	          0.00000000	          0.00000000	          6.29707151	        642.23071799	         33.69520960	         -0.36305931	          0.00000000	         -0.08215072	          0.00000000	          0.00000000	          0.00000000	          0.00000000	         -1.07642025	          0.00000000	
          1.38700000	          0.00000000	          0.00000000	          0.00000000	          0.00000000	          0.00000000	          0.00000000	          6.74753882	        643.60697877	         33.75012101	         -0.36264763	          0.00000000	         -0.08218301	          0.00000000	          0.00000000	          0.00000000	          0.00000000	         -1.09324880	          0.00000000	
          1.38800000	          0.00000000	          0.00000000	          0.00000000	          0.00000000	          0.00000000	          0.00000000	          7.19457142	        645.00665076	         33.80905903	         -0.36223169	          0.00000000	         -0.08215016	          0.00000000	          0.00000000	          0.00000000	          0.00000000	         -1.11830681	          0.00000000	
          1.38900000	          0.00000000	          0.00000000	          0.00000000	          0.00000000	          0.00000000	          0.00000000	          7.65139665	        646.33774571	         33.86607339	         -0.36184445	          0.00000000	         -0.08206946	          0.00000000	          0.00000000	          0.00000000	          0.00000000	         -1.15640997	          0.00000000	
          1.39000000	          0.00000000	          0.00000000	          0.00000000	          0.00000000	          0.00000000	          0.00000000	          8.13683993	        647.53701369	         33.91345056	         -0.36151190	          0.00000000	         -0.08196658	          0.00000000	          0.00000000	          0.00000000	          0.00000000	         -1.20124153	          0.00000000	
          1.39100000	          0.00000000	          0.00000000	          0.00000000	          0.00000000	          0.00000000	          0.00000000	          8.65701985	        648.60133536	         33.95341903	         -0.36122847	          0.00000000	         -0.08187156	          0.00000000	          0.00000000	          0.00000000	          0.00000000	         -1.24503833	          0.00000000	
          1.39200000	          0.00000000	          0.00000000	          0.00000000	          0.00000000	          0.00000000	          0.00000000	          9.21031786	        649.60743090	         33.98556057	         -0.36097255	          0.00000000	         -0.08181580	          0.00000000	          0.00000000	          0.00000000	          0.00000000	         -1.28803884	          0.00000000	
          1.39300000	          0.00000000	          0.00000000	          0.00000000	          0.00000000	          0.00000000	          0.00000000	          9.79733090	        650.68383725	         34.00114365	         -0.36072751	          0.00000000	         -0.08180560	          0.00000000	          0.00000000	          0.00000000	          0.00000000	         -1.33105885	          0.00000000	
          1.39400000	          0.00000000	          0.00000000	          0.00000000	          0.00000000	          0.00000000	          0.00000000	         10.41662758	        651.92409483	         34.00065046	         -0.36047806	          0.00000000	         -0.08181334	          0.00000000	          0.00000000	          0.00000000	          0.00000000	         -1.37023366	          0.00000000	
          1.39500000	          0.00000000	          0.00000000	          0.00000000	          0.00000000	          0.00000000	          0.00000000	         11.06244402	        653.33157915	         33.99995645	         -0.36021296	          0.00000000	         -0.08180642	          0.00000000	          0.00000000	          0.00000000	          0.00000000	         -1.40359066	          0.00000000	
